<svg id="visual" viewBox="0 0 900 600" width="900" height="600" xmlns="http://www.w3.org/2000/svg" xmlns:xlink="http://www.w3.org/1999/xlink" version="1.1"><path d="M0 354L16.7 360.7C33.3 367.3 66.7 380.7 100 380.8C133.3 381 166.7 368 200 367.7C233.3 367.3 266.7 379.7 300 381.3C333.3 383 366.7 374 400 363.8C433.3 353.7 466.7 342.3 500 342.5C533.3 342.7 566.7 354.3 600 361C633.3 367.7 666.7 369.3 700 373.8C733.3 378.3 766.7 385.7 800 385.8C833.3 386 866.7 379 883.3 375.5L900 372L900 601L883.3 601C866.7 601 833.3 601 800 601C766.7 601 733.3 601 700 601C666.7 601 633.3 601 600 601C566.7 601 533.3 601 500 601C466.7 601 433.3 601 400 601C366.7 601 333.3 601 300 601C266.7 601 233.3 601 200 601C166.7 601 133.3 601 100 601C66.7 601 33.3 601 16.7 601L0 601Z" fill="#fef08a"></path><path d="M0 409L16.7 412.5C33.3 416 66.7 423 100 423C133.3 423 166.7 416 200 409.2C233.3 402.3 266.7 395.7 300 391.7C333.3 387.7 366.7 386.3 400 380.5C433.3 374.7 466.7 364.3 500 362.8C533.3 361.3 566.7 368.7 600 383.3C633.3 398 666.7 420 700 418.7C733.3 417.3 766.7 392.7 800 385.5C833.3 378.3 866.7 388.7 883.3 393.8L900 399L900 601L883.3 601C866.7 601 833.3 601 800 601C766.7 601 733.3 601 700 601C666.7 601 633.3 601 600 601C566.7 601 533.3 601 500 601C466.7 601 433.3 601 400 601C366.7 601 333.3 601 300 601C266.7 601 233.3 601 200 601C166.7 601 133.3 601 100 601C66.7 601 33.3 601 16.7 601L0 601Z" fill="#ffe584"></path><path d="M0 436L16.7 439C33.3 442 66.7 448 100 453.5C133.3 459 166.7 464 200 465C233.3 466 266.7 463 300 461.3C333.3 459.7 366.7 459.3 400 452.7C433.3 446 466.7 433 500 428.7C533.3 424.3 566.7 428.7 600 424C633.3 419.3 666.7 405.7 700 412.7C733.3 419.7 766.7 447.3 800 460C833.3 472.7 866.7 470.3 883.3 469.2L900 468L900 601L883.3 601C866.7 601 833.3 601 800 601C766.7 601 733.3 601 700 601C666.7 601 633.3 601 600 601C566.7 601 533.3 601 500 601C466.7 601 433.3 601 400 601C366.7 601 333.3 601 300 601C266.7 601 233.3 601 200 601C166.7 601 133.3 601 100 601C66.7 601 33.3 601 16.7 601L0 601Z" fill="#ffda7e"></path><path d="M0 452L16.7 450.2C33.3 448.3 66.7 444.7 100 444.8C133.3 445 166.7 449 200 456.7C233.3 464.3 266.7 475.7 300 483.8C333.3 492 366.7 497 400 493.7C433.3 490.3 466.7 478.7 500 476.5C533.3 474.3 566.7 481.7 600 478.7C633.3 475.7 666.7 462.3 700 453.5C733.3 444.7 766.7 440.3 800 438.2C833.3 436 866.7 436 883.3 436L900 436L900 601L883.3 601C866.7 601 833.3 601 800 601C766.7 601 733.3 601 700 601C666.7 601 633.3 601 600 601C566.7 601 533.3 601 500 601C466.7 601 433.3 601 400 601C366.7 601 333.3 601 300 601C266.7 601 233.3 601 200 601C166.7 601 133.3 601 100 601C66.7 601 33.3 601 16.7 601L0 601Z" fill="#ffd07a"></path><path d="M0 481L16.7 485.8C33.3 490.7 66.7 500.3 100 501C133.3 501.7 166.7 493.3 200 493.3C233.3 493.3 266.7 501.7 300 505C333.3 508.3 366.7 506.7 400 506.5C433.3 506.3 466.7 507.7 500 511.7C533.3 515.7 566.7 522.3 600 527.7C633.3 533 666.7 537 700 537.7C733.3 538.3 766.7 535.7 800 533.7C833.3 531.7 866.7 530.3 883.3 529.7L900 529L900 601L883.3 601C866.7 601 833.3 601 800 601C766.7 601 733.3 601 700 601C666.7 601 633.3 601 600 601C566.7 601 533.3 601 500 601C466.7 601 433.3 601 400 601C366.7 601 333.3 601 300 601C266.7 601 233.3 601 200 601C166.7 601 133.3 601 100 601C66.7 601 33.3 601 16.7 601L0 601Z" fill="#fec576"></path><path d="M0 572L16.7 566.5C33.3 561 66.7 550 100 545.7C133.3 541.3 166.7 543.7 200 541.5C233.3 539.3 266.7 532.7 300 530.8C333.3 529 366.7 532 400 535.8C433.3 539.7 466.7 544.3 500 543.8C533.3 543.3 566.7 537.7 600 535.8C633.3 534 666.7 536 700 538.8C733.3 541.7 766.7 545.3 800 544.3C833.3 543.3 866.7 537.7 883.3 534.8L900 532L900 601L883.3 601C866.7 601 833.3 601 800 601C766.7 601 733.3 601 700 601C666.7 601 633.3 601 600 601C566.7 601 533.3 601 500 601C466.7 601 433.3 601 400 601C366.7 601 333.3 601 300 601C266.7 601 233.3 601 200 601C166.7 601 133.3 601 100 601C66.7 601 33.3 601 16.7 601L0 601Z" fill="#fdba74"></path></svg>