<svg id="visual" viewBox="0 0 900 600" width="900" height="600" xmlns="http://www.w3.org/2000/svg" xmlns:xlink="http://www.w3.org/1999/xlink" version="1.1"><rect x="0" y="0" width="900" height="600" fill="#facc15"></rect><defs><linearGradient id="grad1_0" x1="33.3%" y1="0%" x2="100%" y2="100%"><stop offset="20%" stop-color="#facc15" stop-opacity="1"></stop><stop offset="80%" stop-color="#facc15" stop-opacity="1"></stop></linearGradient></defs><defs><linearGradient id="grad2_0" x1="0%" y1="0%" x2="66.7%" y2="100%"><stop offset="20%" stop-color="#facc15" stop-opacity="1"></stop><stop offset="80%" stop-color="#facc15" stop-opacity="1"></stop></linearGradient></defs><g transform="translate(900, 0)"><path d="M0 513.8C-29.7 476.3 -59.4 438.8 -100.1 438.7C-140.9 438.6 -192.8 475.8 -222.9 462.9C-253.1 450 -261.5 386.9 -278.1 348.7C-294.6 310.5 -319.3 297 -352.6 281.2C-385.9 265.3 -427.9 247.1 -454.1 218.7C-480.3 190.3 -490.9 151.8 -498.2 113.7C-505.5 75.6 -509.7 37.8 -513.8 0L0 0Z" fill="#ffffff"></path></g><g transform="translate(0, 600)"><path d="M0 -513.8C35.7 -492 71.4 -470.3 103.5 -453.3C135.5 -436.4 163.9 -424.4 202.6 -420.8C241.4 -417.1 290.6 -422 320.3 -401.7C350.1 -381.4 360.5 -336.1 375.3 -299.3C390.1 -262.5 409.4 -234.2 421.7 -203.1C433.9 -171.9 439.2 -137.8 453.3 -103.5C467.5 -69.1 490.7 -34.6 513.8 0L0 0Z" fill="#ffffff"></path></g></svg>