<svg id="visual" viewBox="0 0 900 600" width="900" height="600" xmlns="http://www.w3.org/2000/svg" xmlns:xlink="http://www.w3.org/1999/xlink" version="1.1"><path d="M0 352L16.7 356.7C33.3 361.3 66.7 370.7 100 365.8C133.3 361 166.7 342 200 341.2C233.3 340.3 266.7 357.7 300 371.5C333.3 385.3 366.7 395.7 400 387.7C433.3 379.7 466.7 353.3 500 348.8C533.3 344.3 566.7 361.7 600 371.7C633.3 381.7 666.7 384.3 700 376.3C733.3 368.3 766.7 349.7 800 349.3C833.3 349 866.7 367 883.3 376L900 385L900 601L883.3 601C866.7 601 833.3 601 800 601C766.7 601 733.3 601 700 601C666.7 601 633.3 601 600 601C566.7 601 533.3 601 500 601C466.7 601 433.3 601 400 601C366.7 601 333.3 601 300 601C266.7 601 233.3 601 200 601C166.7 601 133.3 601 100 601C66.7 601 33.3 601 16.7 601L0 601Z" fill="#fef08a"></path><path d="M0 408L16.7 410.8C33.3 413.7 66.7 419.3 100 414.2C133.3 409 166.7 393 200 388.2C233.3 383.3 266.7 389.7 300 394.2C333.3 398.7 366.7 401.3 400 396C433.3 390.7 466.7 377.3 500 372.5C533.3 367.7 566.7 371.3 600 378.5C633.3 385.7 666.7 396.3 700 392.7C733.3 389 766.7 371 800 376.3C833.3 381.7 866.7 410.3 883.3 424.7L900 439L900 601L883.3 601C866.7 601 833.3 601 800 601C766.7 601 733.3 601 700 601C666.7 601 633.3 601 600 601C566.7 601 533.3 601 500 601C466.7 601 433.3 601 400 601C366.7 601 333.3 601 300 601C266.7 601 233.3 601 200 601C166.7 601 133.3 601 100 601C66.7 601 33.3 601 16.7 601L0 601Z" fill="#ffe584"></path><path d="M0 397L16.7 404.7C33.3 412.3 66.7 427.7 100 430.7C133.3 433.7 166.7 424.3 200 419C233.3 413.7 266.7 412.3 300 415.5C333.3 418.7 366.7 426.3 400 434.2C433.3 442 466.7 450 500 451.5C533.3 453 566.7 448 600 442.5C633.3 437 666.7 431 700 425C733.3 419 766.7 413 800 413.2C833.3 413.3 866.7 419.7 883.3 422.8L900 426L900 601L883.3 601C866.7 601 833.3 601 800 601C766.7 601 733.3 601 700 601C666.7 601 633.3 601 600 601C566.7 601 533.3 601 500 601C466.7 601 433.3 601 400 601C366.7 601 333.3 601 300 601C266.7 601 233.3 601 200 601C166.7 601 133.3 601 100 601C66.7 601 33.3 601 16.7 601L0 601Z" fill="#ffda7e"></path><path d="M0 508L16.7 506C33.3 504 66.7 500 100 487.3C133.3 474.7 166.7 453.3 200 450.5C233.3 447.7 266.7 463.3 300 467C333.3 470.7 366.7 462.3 400 455.5C433.3 448.7 466.7 443.3 500 450.7C533.3 458 566.7 478 600 487C633.3 496 666.7 494 700 484.8C733.3 475.7 766.7 459.3 800 458.5C833.3 457.7 866.7 472.3 883.3 479.7L900 487L900 601L883.3 601C866.7 601 833.3 601 800 601C766.7 601 733.3 601 700 601C666.7 601 633.3 601 600 601C566.7 601 533.3 601 500 601C466.7 601 433.3 601 400 601C366.7 601 333.3 601 300 601C266.7 601 233.3 601 200 601C166.7 601 133.3 601 100 601C66.7 601 33.3 601 16.7 601L0 601Z" fill="#ffd07a"></path><path d="M0 515L16.7 517.8C33.3 520.7 66.7 526.3 100 522.8C133.3 519.3 166.7 506.7 200 507.8C233.3 509 266.7 524 300 521.8C333.3 519.7 366.7 500.3 400 500.2C433.3 500 466.7 519 500 524.8C533.3 530.7 566.7 523.3 600 515C633.3 506.7 666.7 497.3 700 495.8C733.3 494.3 766.7 500.7 800 505.2C833.3 509.7 866.7 512.3 883.3 513.7L900 515L900 601L883.3 601C866.7 601 833.3 601 800 601C766.7 601 733.3 601 700 601C666.7 601 633.3 601 600 601C566.7 601 533.3 601 500 601C466.7 601 433.3 601 400 601C366.7 601 333.3 601 300 601C266.7 601 233.3 601 200 601C166.7 601 133.3 601 100 601C66.7 601 33.3 601 16.7 601L0 601Z" fill="#fec576"></path><path d="M0 558L16.7 560.5C33.3 563 66.7 568 100 568C133.3 568 166.7 563 200 557.8C233.3 552.7 266.7 547.3 300 542C333.3 536.7 366.7 531.3 400 535C433.3 538.7 466.7 551.3 500 556.3C533.3 561.3 566.7 558.7 600 557C633.3 555.3 666.7 554.7 700 552.2C733.3 549.7 766.7 545.3 800 543C833.3 540.7 866.7 540.3 883.3 540.2L900 540L900 601L883.3 601C866.7 601 833.3 601 800 601C766.7 601 733.3 601 700 601C666.7 601 633.3 601 600 601C566.7 601 533.3 601 500 601C466.7 601 433.3 601 400 601C366.7 601 333.3 601 300 601C266.7 601 233.3 601 200 601C166.7 601 133.3 601 100 601C66.7 601 33.3 601 16.7 601L0 601Z" fill="#fdba74"></path></svg>